<?xml version="1.0" encoding="UTF-8"?>
<svg width="22px" height="24px" viewBox="0 0 22 24" version="1.1" xmlns="http://www.w3.org/2000/svg" xmlns:xlink="http://www.w3.org/1999/xlink">
    <!-- Generator: Sketch 52.6 (67491) - http://www.bohemiancoding.com/sketch -->
    <title>Group 4</title>
    <desc>Created with Sketch.</desc>
    <g id="Break-points-&amp;-grids" stroke="none" stroke-width="1" fill="none" fill-rule="evenodd" stroke-linecap="round" stroke-linejoin="round">
        <g id="English---default-Copy" transform="translate(-398.000000, -320.000000)" fill-rule="nonzero" stroke="#002244" stroke-width="2">
            <g id="Group-4" transform="translate(409.000000, 332.500000) rotate(90.000000) translate(-409.000000, -332.500000) translate(397.000000, 322.000000)">
                <g id="Group-12">
                    <g id="Group-3" transform="translate(-0.000000, 1.000000)">
                        <g id="Group-11" transform="translate(5.084014, 9.714286) rotate(-90.000000) translate(-5.084014, -9.714286) translate(-4.432507, 4.714286)">
                            <g id="Group">
                                <path d="M12.9910611,3.38836282 L19.5929809,2.76953191" id="Line-6" transform="translate(16.292021, 3.078947) rotate(45.000000) translate(-16.292021, -3.078947) "></path>
                                <path d="M12.9910611,7.59888914 L19.5929809,6.98005823" id="Line-6" transform="translate(16.292021, 7.289474) scale(1, -1) rotate(45.000000) translate(-16.292021, -7.289474) "></path>
                                <path d="M0,5.18421053 L18.3175155,5.18421053" id="Line-6"></path>
                            </g>
                        </g>
                    </g>
                    <g id="Group-3" transform="translate(17.918012, 10.500000) scale(1, -1) translate(-17.918012, -10.500000) translate(12.408447, 0.500000)">
                        <g id="Group-11" transform="translate(5.084014, 9.714286) rotate(-90.000000) translate(-5.084014, -9.714286) translate(-4.432507, 4.714286)">
                            <g id="Group" transform="translate(0.000000, 0.000000)">
                                <path d="M12.9910611,3.38836282 L19.5929809,2.76953191" id="Line-6" transform="translate(16.292021, 3.078947) rotate(45.000000) translate(-16.292021, -3.078947) "></path>
                                <path d="M12.9910611,7.59888914 L19.5929809,6.98005823" id="Line-6" transform="translate(16.292021, 7.289474) scale(1, -1) rotate(45.000000) translate(-16.292021, -7.289474) "></path>
                                <path d="M-4.29457054e-14,5.18421053 L18.3175155,5.18421053" id="Line-6"></path>
                            </g>
                        </g>
                    </g>
                </g>
            </g>
        </g>
    </g>
</svg>